<?xml version="1.0" encoding="utf-8"?>
<!-- Generator: Adobe Illustrator 25.4.1, SVG Export Plug-In . SVG Version: 6.00 Build 0)  -->
<svg version="1.1" id="Layer_1" xmlns="http://www.w3.org/2000/svg" xmlns:xlink="http://www.w3.org/1999/xlink" x="0px" y="0px"
	 viewBox="0 0 65 65" style="enable-background:new 0 0 65 65;" xml:space="preserve">
<style type="text/css">
	.st0{fill:none;stroke:#2E1A47;stroke-width:2;stroke-linecap:round;stroke-linejoin:round;}
	.st1{fill:none;stroke:#2E1A47;stroke-width:2;stroke-linejoin:round;}
	.st2{fill:none;stroke:#2E1A47;stroke-width:2;stroke-miterlimit:10;}
	.st3{fill:#2E1A47;stroke:#2E1A47;stroke-miterlimit:10;}
</style>
<g>
	<path id="Path_10357" class="st0" d="M27.8,12.6c2.9-2.3,10.7-3.1,11.7,0c0.8-0.2,3.3,1.3,1.5,3.7c-0.5,1,1.1,1.5-0.2,3.4
		c-0.5,0.8,1.2,1.7-0.4,3.7c-0.6,0.8,0.7,2.9-1.6,3.3C32,27.8,22,23.5,22,23.5"/>
	<g id="Rectangle_777" transform="translate(0.128 14.748)">
		<path id="Rectangle_3737" class="st1" d="M15.7-2.8h5.2c0.5,0,1,0.4,1,1V9.7c0,0.5-0.4,1-1,1h-5.2c-0.5,0-1-0.4-1-1V-1.8
			C14.7-2.4,15.2-2.8,15.7-2.8z"/>
	</g>
	<path id="Path_12067_00000018216483501833897910000011493046803375291302_" class="st2" d="M21.6,15.4"/>
	<path id="Path_12067_00000005234950658263387010000009426925686231432113_" class="st2" d="M32,16.6"/>
	<path class="st2" d="M37.7,26.7l7.7,4.5c1,0.6,1.7,1.5,2,2.6L53,54.6c0.7,2.7-1.3,5.4-4.1,5.4H16.1c-2.8,0-4.9-2.7-4.1-5.4
		l5.6-20.9c0.3-1.1,1-2,2-2.6l9.1-5.3"/>
	<path id="Path_12068" class="st3" d="M32.1,34.3c0-0.5,0-1.1,0-1.6c0-0.4,0.2-0.7,0.6-0.7c0.4,0,0.5,0.3,0.5,0.7c0,0.5,0,1.1,0,1.7
		c0.5,0.1,0.9,0.2,1.3,0.3c1.6,0.3,3,1.5,3.4,3.1c0.1,0.2,0.2,0.8-0.3,1C37.2,39,37,38.2,37,38.1c-0.2-1.1-0.9-1.9-1.9-2.3
		c-1.5-0.6-3.2-0.7-4.8-0.2c-1.2,0.4-2.1,1.4-2.1,2.7c-0.2,1.2,0.5,2.3,1.6,2.7c1.2,0.4,2.5,0.7,3.7,0.9c0.7,0.1,1.3,0.3,2,0.5
		c1.5,0.5,2.7,1.5,2.9,3.1c0.3,1.7-0.5,3.5-2,4.4c-1,0.5-2,1-3.1,1.4c0,0.5,0,1.1,0,1.8c0,0.4-0.1,0.7-0.5,0.7s-0.6-0.3-0.6-0.7
		c0-0.5,0-1,0-1.5c0-0.4-0.1-0.5-0.5-0.6c-1.7-0.1-3.2-0.9-4.3-2.3c-0.6-0.8-0.8-1.7-0.7-2.6c0-0.2,0-0.7,0.5-0.6
		c0.4,0.1,0.4,0.4,0.4,0.7c-0.1,1.6,0.9,3,2.4,3.5c1.9,0.9,4,0.7,5.7-0.5c1.2-0.8,1.9-2.2,1.6-3.6c-0.1-0.9-0.7-1.6-1.5-1.9
		c-1-0.4-2.1-0.7-3.2-0.9c-1-0.2-2-0.4-3-0.7c-1.7-0.6-2.8-2.2-2.6-4c0.2-1.8,1.6-3.3,3.5-3.6C31.1,34.4,31.5,34.3,32.1,34.3z"/>
	<path class="st2" d="M27.8,12.6l-3-5.1C24.2,6.4,25,5,26.2,5h14.9c1.3,0,2.1,1.4,1.4,2.5l-3,5.1"/>
</g>
</svg>
