<?xml version="1.0" encoding="utf-8"?>
<!-- Generator: Adobe Illustrator 25.4.1, SVG Export Plug-In . SVG Version: 6.00 Build 0)  -->
<svg version="1.1" id="Layer_1" xmlns="http://www.w3.org/2000/svg" xmlns:xlink="http://www.w3.org/1999/xlink" x="0px" y="0px"
	 viewBox="0 0 65 65" style="enable-background:new 0 0 65 65;" xml:space="preserve">
<style type="text/css">
	.st0{fill:none;stroke:#2E1A47;stroke-width:2;stroke-linejoin:round;}
	.st1{fill:none;stroke:#2E1A47;stroke-width:2;stroke-linecap:round;stroke-linejoin:round;}
	.st2{fill:#2E1A47;stroke:#2E1A47;stroke-width:1.25;stroke-miterlimit:10;}
</style>
<g>
	<g>
		<g id="Rectangle_777" transform="translate(0.128 14.748)">
			<path id="Rectangle_3737" class="st0" d="M7,21.8h8.1c0.8,0,1.6,0.6,1.6,1.6v19.5c0,0.8-0.6,1.6-1.6,1.6H7
				c-0.8,0-1.6-0.6-1.6-1.6V23.4C5.4,22.4,6.2,21.8,7,21.8z"/>
		</g>
		<g>
			<path class="st0" d="M24.2,41.4h1.4c0.8,0,2.4,0.2,3.2,0.5"/>
			<path class="st1" d="M54.6,44.1c2.8-0.8,5.6,1.4,5.6,4.3l0,0L38.8,58.9c-1.3,0.6-2.7,0.8-4,0.4l-17.6-4.7"/>
			<line class="st1" x1="54.6" y1="44.1" x2="39.5" y2="47.3"/>
		</g>
		<path class="st1" d="M28.8,41.9l10.7,2.9l0,0c0,3.2-2.2,6.4-5.4,6.4h-7.2"/>
	</g>
	<g>
		<line id="Line_2264" class="st1" x1="24.9" y1="13.3" x2="21.9" y2="9.3"/>
		<path id="Path_10358" class="st1" d="M32.9,11V5"/>
		<path id="Path_10359" class="st1" d="M41,13.8l3.1-4.7"/>
		<path class="st1" d="M20.9,28.1c0-6.3,5.1-11.4,11.4-11.4s11.4,5.1,11.4,11.4"/>
		<path id="Path_12068" class="st2" d="M32,24c0-0.3,0-0.7,0-1.1c0-0.3,0.1-0.5,0.4-0.5c0.3,0,0.3,0.2,0.3,0.5s0,0.7,0,1.2
			c0.3,0.1,0.6,0.1,0.9,0.2c1.1,0.2,2,1,2.3,2.1c0.1,0.1,0.1,0.5-0.2,0.7c-0.3,0.1-0.4-0.4-0.4-0.5c-0.1-0.7-0.6-1.3-1.3-1.6
			c-1-0.4-2.2-0.5-3.3-0.1c-0.8,0.3-1.4,0.9-1.4,1.8c-0.1,0.8,0.3,1.6,1.1,1.8c0.8,0.3,1.7,0.5,2.5,0.6c0.5,0.1,0.9,0.2,1.4,0.3
			c1,0.3,1.8,1,2,2.1c0.2,1.2-0.3,2.4-1.4,3c-0.7,0.3-1.4,0.7-2.1,0.9c0,0.3,0,0.7,0,1.2c0,0.3-0.1,0.5-0.3,0.5
			c-0.3,0-0.4-0.2-0.4-0.5s0-0.7,0-1s-0.1-0.3-0.3-0.4c-1.2-0.1-2.2-0.6-2.9-1.6c-0.4-0.5-0.5-1.2-0.5-1.8c0-0.1,0-0.5,0.3-0.4
			s0.3,0.3,0.3,0.5c-0.1,1.1,0.6,2,1.6,2.4c1.3,0.6,2.7,0.5,3.9-0.3c0.8-0.5,1.3-1.5,1.1-2.4c-0.1-0.6-0.5-1.1-1-1.3
			c-0.7-0.3-1.4-0.5-2.2-0.6c-0.7-0.1-1.4-0.3-2-0.5c-1.2-0.4-1.9-1.5-1.8-2.7s1.1-2.2,2.4-2.4C31.3,24,31.6,24,32,24z"/>
	</g>
</g>
</svg>
