<?xml version="1.0" encoding="utf-8"?>
<!-- Generator: Adobe Illustrator 25.4.1, SVG Export Plug-In . SVG Version: 6.00 Build 0)  -->
<svg version="1.1" id="Layer_1" xmlns="http://www.w3.org/2000/svg" xmlns:xlink="http://www.w3.org/1999/xlink" x="0px" y="0px"
	 viewBox="0 0 65 65" style="enable-background:new 0 0 65 65;" xml:space="preserve">
<style type="text/css">
	.st0{fill:none;stroke:#2E1A47;stroke-width:2;stroke-miterlimit:10;}
	.st1{fill:none;stroke:#2E1A47;stroke-width:2;stroke-linejoin:round;stroke-miterlimit:10;}
</style>
<g>
	<polyline class="st0" points="26.7,24 21,14 22.5,11.4 	"/>
	<path class="st1" d="M23.3,57.6c2.7,1.6,5.9,2.5,9.2,2.5c10.2,0,18.5-8.3,18.5-18.5c0-9.4-7-17.2-16.1-18.4l2.5-9.2"/>
	<path class="st1" d="M27.6,14l2.4,9.2l0,0c-9,1.2-16,9-16,18.4c0,5.1,2.1,9.7,5.4,13.1"/>
	<line class="st0" x1="21" y1="14" x2="44.1" y2="14"/>
	<polyline class="st0" points="27.6,14 29.3,7.7 35.7,7.7 40.4,7.7 44,14 38.2,24.2 	"/>
	<line class="st0" x1="37.4" y1="14" x2="35.8" y2="7.7"/>
	<path class="st1" d="M32.5,55.3c-7.6,0-13.7-6.1-13.7-13.7s6.1-13.7,13.7-13.7S46.2,34,46.2,41.6S40.1,55.3,32.5,55.3z"/>
	<line class="st0" x1="21.2" y1="7.7" x2="26.7" y2="7.7"/>
	<line class="st0" x1="23.9" y1="4.9" x2="24" y2="10.4"/>
</g>
</svg>
