<?xml version="1.0" encoding="utf-8"?>
<!-- Generator: Adobe Illustrator 25.4.1, SVG Export Plug-In . SVG Version: 6.00 Build 0)  -->
<svg version="1.1" id="Layer_1" xmlns="http://www.w3.org/2000/svg" xmlns:xlink="http://www.w3.org/1999/xlink" x="0px" y="0px"
	 viewBox="0 0 65 65" style="enable-background:new 0 0 65 65;" xml:space="preserve">
<style type="text/css">
	.st0{fill:none;stroke:#2E1A47;stroke-width:2;}
	.st1{fill:#2E1A47;}
</style>
<g>
	<path class="st0" d="M32.5,49.5L13,44.3c-1.3-0.3-2.1-1.5-2.1-2.8V12.6c0-1.9,1.8-3.3,3.6-2.8l18,4.8l18-4.8
		c1.8-0.5,3.6,0.9,3.6,2.8v28.9c0,1.3-0.9,2.5-2.1,2.8L32.5,49.5z"/>
	<path class="st0" d="M5.1,16.2v29.5c0,1.3,0.9,2.5,2.1,2.8l25.2,6.8l25.5-6.8c1.3-0.3,2.1-1.5,2.1-2.8V16.2"/>
	<line class="st0" x1="32.5" y1="49.5" x2="32.5" y2="22"/>
	<polygon class="st1" points="28.2,41.2 15.2,37.6 15.2,35.6 28.2,39.1 	"/>
	<polygon class="st1" points="28.2,32.1 15.2,28.5 15.2,26.5 28.2,30 	"/>
	<polygon class="st1" points="28.2,22.8 15.2,19.4 15.2,17.4 28.2,20.8 	"/>
	<polygon class="st1" points="36.8,41.2 50,37.6 50,35.6 36.8,39.1 	"/>
	<polygon class="st1" points="36.8,32.1 50,28.5 50,26.5 36.8,30 	"/>
	<polygon class="st1" points="36.8,22.8 50,19.4 50,17.4 36.8,20.8 	"/>
</g>
</svg>
