<?xml version="1.0" encoding="utf-8"?>
<!-- Generator: Adobe Illustrator 25.4.1, SVG Export Plug-In . SVG Version: 6.00 Build 0)  -->
<svg version="1.1" id="Layer_1" xmlns="http://www.w3.org/2000/svg" xmlns:xlink="http://www.w3.org/1999/xlink" x="0px" y="0px"
	 viewBox="0 0 65 65" style="enable-background:new 0 0 65 65;" xml:space="preserve">
<style type="text/css">
	.st0{fill:none;stroke:#2E1A47;stroke-width:2.0484;stroke-miterlimit:10;}
</style>
<g>
	<path class="st0" d="M48.5,21v34.9c0,2.3-1.8,4.1-4.1,4.1H34V44c0-0.8-0.6-1.4-1.4-1.4H21c-0.8,0-1.4,0.6-1.4,1.4v16H9.1
		C6.9,60,5,58.2,5,55.9V26.8L26.7,5l6.7,6.8"/>
	<path class="st0" d="M56.6,22.7c0.4-1,0.6-2.2,0.6-3.3c0-4.7-3.8-8.6-8.6-8.6c-4.7,0-8.6,3.8-8.6,8.6c0,1.1,0.2,2.3,0.6,3.3
		c-2.3,2-3.6,5-3.6,8.3c0,6.4,5.1,11.5,11.5,11.5S59.9,37.4,59.9,31C60.1,27.8,58.7,24.9,56.6,22.7z"/>
	<line class="st0" x1="48.7" y1="33.9" x2="54.3" y2="30.6"/>
</g>
</svg>
