<?xml version="1.0" encoding="utf-8"?>
<!-- Generator: Adobe Illustrator 25.4.1, SVG Export Plug-In . SVG Version: 6.00 Build 0)  -->
<svg version="1.1" id="Layer_1" xmlns="http://www.w3.org/2000/svg" xmlns:xlink="http://www.w3.org/1999/xlink" x="0px" y="0px"
	 viewBox="0 0 65 65" style="enable-background:new 0 0 65 65;" xml:space="preserve">
<style type="text/css">
	.st0{fill:none;stroke:#2E1A47;stroke-width:2;stroke-linejoin:round;stroke-miterlimit:10;}
	.st1{fill:none;stroke:#2E1A47;stroke-width:2;stroke-miterlimit:10;}
</style>
<g>
	<path class="st0" d="M40.2,32.3c0-3.4,2.7-6.1,6.1-6.1s6.1,2.7,6.1,6.1s-2.7,6.1-6.1,6.1S40.2,35.7,40.2,32.3z"/>
	<path class="st1" d="M59.3,25.3c2.4-8-2.4-17.3-11.6-18.1c-0.5,0-1-0.1-1.5-0.1c-5.8,0-10.8,3-13.7,7.5c-2.8-4.5-7.9-7.5-13.7-7.5
		c-0.5,0-1,0-1.5,0.1C6,8.2,1.2,21.9,8.5,30.4l7.9,9.1"/>
	<path class="st0" d="M16.4,39.5l16,18.4c0-7.6,6.1-13.7,13.7-13.7s13.7,6.1,13.7,13.7"/>
</g>
</svg>
